<mxfile host="65bd71144e">
    <diagram id="3c7PIhAsYwBbtQYpfLEp" name="Page-1">
        <mxGraphModel dx="1742" dy="1358" grid="1" gridSize="10" guides="0" tooltips="1" connect="1" arrows="1" fold="1" page="0" pageScale="1" pageWidth="850" pageHeight="1100" math="0" shadow="0">
            <root>
                <mxCell id="0"/>
                <mxCell id="1" parent="0"/>
                <mxCell id="111" value="" style="edgeStyle=none;html=1;endArrow=none;endFill=0;strokeWidth=4;" edge="1" parent="1" source="2" target="110">
                    <mxGeometry relative="1" as="geometry"/>
                </mxCell>
                <mxCell id="113" value="" style="edgeStyle=none;html=1;endArrow=none;endFill=0;strokeWidth=1;" edge="1" parent="1" source="2" target="112">
                    <mxGeometry relative="1" as="geometry"/>
                </mxCell>
                <mxCell id="115" value="" style="edgeStyle=none;html=1;endArrow=none;endFill=0;strokeWidth=4;" edge="1" parent="1" source="2" target="114">
                    <mxGeometry relative="1" as="geometry"/>
                </mxCell>
                <mxCell id="117" value="" style="edgeStyle=none;html=1;endArrow=classic;endFill=1;strokeWidth=4;" edge="1" parent="1" source="2" target="116">
                    <mxGeometry relative="1" as="geometry"/>
                </mxCell>
                <mxCell id="122" style="edgeStyle=none;html=1;exitX=0;exitY=0;exitDx=0;exitDy=0;endArrow=none;endFill=0;strokeWidth=4;" edge="1" parent="1" source="2" target="123">
                    <mxGeometry relative="1" as="geometry">
                        <mxPoint x="80" y="160" as="targetPoint"/>
                    </mxGeometry>
                </mxCell>
                <mxCell id="2" value="User" style="rounded=0;whiteSpace=wrap;html=1;" parent="1" vertex="1">
                    <mxGeometry x="160" y="220" width="120" height="60" as="geometry"/>
                </mxCell>
                <mxCell id="110" value="Password" style="ellipse;whiteSpace=wrap;html=1;rounded=0;" vertex="1" parent="1">
                    <mxGeometry x="160" y="80" width="120" height="60" as="geometry"/>
                </mxCell>
                <mxCell id="112" value="&lt;u&gt;User Name&lt;/u&gt;" style="ellipse;whiteSpace=wrap;html=1;rounded=0;" vertex="1" parent="1">
                    <mxGeometry x="-40" y="220" width="120" height="60" as="geometry"/>
                </mxCell>
                <mxCell id="114" value="&lt;u&gt;ID&lt;/u&gt;" style="ellipse;whiteSpace=wrap;html=1;rounded=0;" vertex="1" parent="1">
                    <mxGeometry x="20" y="330" width="120" height="60" as="geometry"/>
                </mxCell>
                <mxCell id="119" value="" style="edgeStyle=none;html=1;endArrow=none;endFill=0;strokeWidth=4;" edge="1" parent="1" source="116" target="118">
                    <mxGeometry relative="1" as="geometry"/>
                </mxCell>
                <mxCell id="116" value="Selects" style="rhombus;whiteSpace=wrap;html=1;rounded=0;" vertex="1" parent="1">
                    <mxGeometry x="380" y="210" width="80" height="80" as="geometry"/>
                </mxCell>
                <mxCell id="121" value="" style="edgeStyle=none;html=1;endArrow=none;endFill=0;strokeWidth=4;" edge="1" parent="1" source="118" target="120">
                    <mxGeometry relative="1" as="geometry"/>
                </mxCell>
                <mxCell id="188" style="edgeStyle=none;html=1;exitX=1;exitY=0.5;exitDx=0;exitDy=0;entryX=0;entryY=0.5;entryDx=0;entryDy=0;fontSize=10;startArrow=none;startFill=0;endArrow=none;endFill=0;strokeWidth=1;" edge="1" parent="1" source="118" target="127">
                    <mxGeometry relative="1" as="geometry"/>
                </mxCell>
                <mxCell id="193" value="" style="edgeStyle=none;html=1;fontSize=10;startArrow=none;startFill=0;endArrow=none;endFill=0;strokeWidth=1;" edge="1" parent="1" source="118" target="192">
                    <mxGeometry relative="1" as="geometry"/>
                </mxCell>
                <mxCell id="201" value="" style="edgeStyle=none;html=1;fontSize=10;startArrow=none;startFill=0;endArrow=none;endFill=0;strokeWidth=4;" edge="1" parent="1" source="118" target="200">
                    <mxGeometry relative="1" as="geometry"/>
                </mxCell>
                <mxCell id="118" value="Hue" style="whiteSpace=wrap;html=1;rounded=0;" vertex="1" parent="1">
                    <mxGeometry x="580" y="220" width="120" height="60" as="geometry"/>
                </mxCell>
                <mxCell id="120" value="&lt;u&gt;ID&lt;/u&gt;" style="ellipse;whiteSpace=wrap;html=1;rounded=0;" vertex="1" parent="1">
                    <mxGeometry x="580" y="90" width="120" height="60" as="geometry"/>
                </mxCell>
                <mxCell id="123" value="&lt;u&gt;Email&lt;/u&gt;" style="ellipse;whiteSpace=wrap;html=1;" vertex="1" parent="1">
                    <mxGeometry x="-10" y="90" width="120" height="80" as="geometry"/>
                </mxCell>
                <mxCell id="127" value="h_color" style="ellipse;whiteSpace=wrap;html=1;" vertex="1" parent="1">
                    <mxGeometry x="740" y="80" width="120" height="80" as="geometry"/>
                </mxCell>
                <mxCell id="165" value="" style="edgeStyle=none;html=1;fontSize=10;startArrow=none;startFill=0;endArrow=none;endFill=0;strokeWidth=4;" edge="1" parent="1" source="162" target="164">
                    <mxGeometry relative="1" as="geometry"/>
                </mxCell>
                <mxCell id="220" value="" style="edgeStyle=none;html=1;fontSize=10;startArrow=none;startFill=0;endArrow=none;endFill=0;strokeWidth=4;" edge="1" parent="1" source="162" target="219">
                    <mxGeometry relative="1" as="geometry"/>
                </mxCell>
                <mxCell id="225" value="" style="edgeStyle=none;html=1;fontSize=10;startArrow=none;startFill=0;endArrow=none;endFill=0;strokeWidth=1;" edge="1" parent="1" source="162" target="224">
                    <mxGeometry relative="1" as="geometry"/>
                </mxCell>
                <mxCell id="162" value="counttry" style="whiteSpace=wrap;html=1;rounded=0;" vertex="1" parent="1">
                    <mxGeometry x="980" y="-80" width="120" height="60" as="geometry"/>
                </mxCell>
                <mxCell id="164" value="&lt;u&gt;ID&lt;/u&gt;" style="ellipse;whiteSpace=wrap;html=1;rounded=0;" vertex="1" parent="1">
                    <mxGeometry x="820" y="-80" width="120" height="60" as="geometry"/>
                </mxCell>
                <mxCell id="195" value="" style="edgeStyle=none;html=1;fontSize=10;startArrow=classic;startFill=1;endArrow=none;endFill=0;strokeWidth=4;" edge="1" parent="1" source="192" target="194">
                    <mxGeometry relative="1" as="geometry"/>
                </mxCell>
                <mxCell id="192" value="contains" style="rhombus;whiteSpace=wrap;html=1;rounded=0;" vertex="1" parent="1">
                    <mxGeometry x="600" y="350" width="80" height="80" as="geometry"/>
                </mxCell>
                <mxCell id="197" value="" style="edgeStyle=none;html=1;fontSize=10;startArrow=none;startFill=0;endArrow=none;endFill=0;strokeWidth=4;" edge="1" parent="1" source="194" target="196">
                    <mxGeometry relative="1" as="geometry"/>
                </mxCell>
                <mxCell id="199" value="" style="edgeStyle=none;html=1;fontSize=10;startArrow=none;startFill=0;endArrow=none;endFill=0;strokeWidth=3;" edge="1" parent="1" source="194" target="198">
                    <mxGeometry relative="1" as="geometry"/>
                </mxCell>
                <mxCell id="204" style="edgeStyle=none;html=1;exitX=1;exitY=0;exitDx=0;exitDy=0;fontSize=10;startArrow=none;startFill=0;endArrow=none;endFill=0;strokeWidth=4;" edge="1" parent="1" source="194" target="205">
                    <mxGeometry relative="1" as="geometry">
                        <mxPoint x="820" y="420" as="targetPoint"/>
                    </mxGeometry>
                </mxCell>
                <mxCell id="194" value="tasting note" style="whiteSpace=wrap;html=1;rounded=0;" vertex="1" parent="1">
                    <mxGeometry x="580" y="520" width="120" height="60" as="geometry"/>
                </mxCell>
                <mxCell id="196" value="ID" style="ellipse;whiteSpace=wrap;html=1;rounded=0;" vertex="1" parent="1">
                    <mxGeometry x="380" y="520" width="120" height="60" as="geometry"/>
                </mxCell>
                <mxCell id="198" value="Note" style="ellipse;whiteSpace=wrap;html=1;rounded=0;" vertex="1" parent="1">
                    <mxGeometry x="580" y="660" width="120" height="60" as="geometry"/>
                </mxCell>
                <mxCell id="203" value="" style="edgeStyle=none;html=1;fontSize=10;startArrow=none;startFill=0;endArrow=none;endFill=0;strokeWidth=4;" edge="1" parent="1" source="200" target="202">
                    <mxGeometry relative="1" as="geometry"/>
                </mxCell>
                <mxCell id="200" value="belongs to" style="rhombus;whiteSpace=wrap;html=1;rounded=0;" vertex="1" parent="1">
                    <mxGeometry x="790" y="210" width="80" height="80" as="geometry"/>
                </mxCell>
                <mxCell id="211" value="" style="edgeStyle=none;html=1;fontSize=10;startArrow=none;startFill=0;endArrow=none;endFill=0;strokeWidth=4;" edge="1" parent="1" source="202" target="210">
                    <mxGeometry relative="1" as="geometry"/>
                </mxCell>
                <mxCell id="213" value="" style="edgeStyle=none;html=1;fontSize=10;startArrow=none;startFill=0;endArrow=none;endFill=0;strokeWidth=4;" edge="1" parent="1" source="202" target="212">
                    <mxGeometry relative="1" as="geometry"/>
                </mxCell>
                <mxCell id="214" style="edgeStyle=none;html=1;exitX=1;exitY=1;exitDx=0;exitDy=0;fontSize=10;startArrow=none;startFill=0;endArrow=none;endFill=0;strokeWidth=4;" edge="1" parent="1" source="202" target="215">
                    <mxGeometry relative="1" as="geometry">
                        <mxPoint x="1170" y="350" as="targetPoint"/>
                    </mxGeometry>
                </mxCell>
                <mxCell id="222" value="" style="edgeStyle=none;html=1;fontSize=10;startArrow=none;startFill=0;endArrow=none;endFill=0;strokeWidth=4;" edge="1" parent="1" source="202" target="221">
                    <mxGeometry relative="1" as="geometry"/>
                </mxCell>
                <mxCell id="234" style="edgeStyle=none;html=1;exitX=1;exitY=0;exitDx=0;exitDy=0;fontSize=10;startArrow=none;startFill=0;endArrow=none;endFill=0;strokeWidth=4;" edge="1" parent="1" source="202" target="235">
                    <mxGeometry relative="1" as="geometry">
                        <mxPoint x="1220" y="110" as="targetPoint"/>
                    </mxGeometry>
                </mxCell>
                <mxCell id="202" value="wine" style="whiteSpace=wrap;html=1;rounded=0;" vertex="1" parent="1">
                    <mxGeometry x="980" y="220" width="120" height="60" as="geometry"/>
                </mxCell>
                <mxCell id="209" style="edgeStyle=none;html=1;exitX=0;exitY=0;exitDx=0;exitDy=0;entryX=0;entryY=0.75;entryDx=0;entryDy=0;fontSize=10;startArrow=none;startFill=0;endArrow=none;endFill=0;strokeWidth=4;" edge="1" parent="1" source="205" target="202">
                    <mxGeometry relative="1" as="geometry"/>
                </mxCell>
                <mxCell id="205" value="belongs to" style="rhombus;whiteSpace=wrap;html=1;fontSize=10;direction=south;" vertex="1" parent="1">
                    <mxGeometry x="780" y="360" width="80" height="80" as="geometry"/>
                </mxCell>
                <mxCell id="210" value="&lt;u&gt;ID&lt;/u&gt;" style="ellipse;whiteSpace=wrap;html=1;rounded=0;" vertex="1" parent="1">
                    <mxGeometry x="980" y="360" width="120" height="60" as="geometry"/>
                </mxCell>
                <mxCell id="212" value="Name" style="ellipse;whiteSpace=wrap;html=1;rounded=0;" vertex="1" parent="1">
                    <mxGeometry x="1180" y="220" width="120" height="60" as="geometry"/>
                </mxCell>
                <mxCell id="215" value="price" style="ellipse;whiteSpace=wrap;html=1;fontSize=10;" vertex="1" parent="1">
                    <mxGeometry x="1140" y="330" width="120" height="80" as="geometry"/>
                </mxCell>
                <mxCell id="219" value="&lt;b&gt;name&lt;/b&gt;" style="ellipse;whiteSpace=wrap;html=1;rounded=0;" vertex="1" parent="1">
                    <mxGeometry x="980" y="-190" width="120" height="60" as="geometry"/>
                </mxCell>
                <mxCell id="223" value="" style="edgeStyle=none;html=1;fontSize=10;startArrow=classic;startFill=1;endArrow=none;endFill=0;strokeWidth=4;" edge="1" parent="1" source="221" target="162">
                    <mxGeometry relative="1" as="geometry"/>
                </mxCell>
                <mxCell id="221" value="belongs to" style="rhombus;whiteSpace=wrap;html=1;rounded=0;" vertex="1" parent="1">
                    <mxGeometry x="1000" y="70" width="80" height="80" as="geometry"/>
                </mxCell>
                <mxCell id="227" value="" style="edgeStyle=none;html=1;fontSize=10;startArrow=none;startFill=0;endArrow=none;endFill=0;strokeWidth=1;" edge="1" parent="1" source="224" target="226">
                    <mxGeometry relative="1" as="geometry"/>
                </mxCell>
                <mxCell id="224" value="contains" style="rhombus;whiteSpace=wrap;html=1;rounded=0;" vertex="1" parent="1">
                    <mxGeometry x="1170" y="-90" width="80" height="80" as="geometry"/>
                </mxCell>
                <mxCell id="229" value="" style="edgeStyle=none;html=1;fontSize=10;startArrow=none;startFill=0;endArrow=none;endFill=0;strokeWidth=4;" edge="1" parent="1" source="226" target="228">
                    <mxGeometry relative="1" as="geometry"/>
                </mxCell>
                <mxCell id="231" value="" style="edgeStyle=none;html=1;fontSize=10;startArrow=none;startFill=0;endArrow=none;endFill=0;strokeWidth=1;" edge="1" parent="1" source="226" target="230">
                    <mxGeometry relative="1" as="geometry"/>
                </mxCell>
                <mxCell id="233" value="" style="edgeStyle=none;html=1;fontSize=10;startArrow=none;startFill=0;endArrow=none;endFill=0;strokeWidth=1;" edge="1" parent="1" source="226" target="232">
                    <mxGeometry relative="1" as="geometry"/>
                </mxCell>
                <mxCell id="236" style="edgeStyle=none;html=1;exitX=0;exitY=1;exitDx=0;exitDy=0;fontSize=10;startArrow=none;startFill=0;endArrow=none;endFill=0;strokeWidth=4;" edge="1" parent="1" source="226" target="235">
                    <mxGeometry relative="1" as="geometry"/>
                </mxCell>
                <mxCell id="226" value="region" style="whiteSpace=wrap;html=1;rounded=0;" vertex="1" parent="1">
                    <mxGeometry x="1340" y="-80" width="120" height="60" as="geometry"/>
                </mxCell>
                <mxCell id="228" value="&lt;u&gt;ID&lt;/u&gt;" style="ellipse;whiteSpace=wrap;html=1;rounded=0;" vertex="1" parent="1">
                    <mxGeometry x="1410" y="-190" width="120" height="60" as="geometry"/>
                </mxCell>
                <mxCell id="230" value="name" style="ellipse;whiteSpace=wrap;html=1;rounded=0;" vertex="1" parent="1">
                    <mxGeometry x="1540" y="-80" width="120" height="60" as="geometry"/>
                </mxCell>
                <mxCell id="232" value="terroir" style="ellipse;whiteSpace=wrap;html=1;rounded=0;" vertex="1" parent="1">
                    <mxGeometry x="1430" y="20" width="120" height="60" as="geometry"/>
                </mxCell>
                <mxCell id="235" value="comes from" style="rhombus;whiteSpace=wrap;html=1;fontSize=10;" vertex="1" parent="1">
                    <mxGeometry x="1180" y="50" width="80" height="80" as="geometry"/>
                </mxCell>
            </root>
        </mxGraphModel>
    </diagram>
</mxfile>